<svg width="41" height="57" viewBox="0 0 41 57" fill="none" xmlns="http://www.w3.org/2000/svg">
<path fill-rule="evenodd" clip-rule="evenodd" d="M41 36.7058C41 47.8235 31.7706 57 20.4114 57C9.22942 57 0 47.8235 0 36.7058C0 24.5295 12.6017 9.00001 20.4114 0C28.2208 9.5294 41 23.9999 41 36.7058Z" fill="#78BEFF"/>
<path fill-rule="evenodd" clip-rule="evenodd" d="M33 35.5387C33 42.3653 27.3723 48 20.446 48C13.6277 48 8 42.3653 8 35.5387C8 28.062 15.684 18.5263 20.446 13C25.2078 18.8514 33 27.7368 33 35.5387Z" fill="white"/>
<path fill-rule="evenodd" clip-rule="evenodd" d="M27 35.5913C27 39.1022 24.0736 42 20.4719 42C16.9264 42 14 39.1022 14 35.5913C14 31.7462 17.9957 26.8421 20.4719 24C22.948 27.0093 27 31.5789 27 35.5913Z" fill="#B6EDFF"/>
<path fill-rule="evenodd" clip-rule="evenodd" d="M23 35.5077C23 36.8731 21.8745 38 20.4892 38C19.1255 38 18 36.8731 18 35.5077C18 34.0124 19.5368 32.1053 20.4892 31C21.4416 32.1703 23 33.9474 23 35.5077Z" fill="white"/>
</svg>
